<svg width="77" height="83" viewBox="0 0 77 83" fill="none" xmlns="http://www.w3.org/2000/svg">
<path d="M38.5 0L77 41.5L38.5 83L0 41.5L38.5 0Z" fill="black"/>
<path d="M20.2695 38.5859V38.3457L21.4941 38.2168L22.3203 38L22.4023 38.1699V38.9316H22.4258C22.6484 38.5527 22.8828 38.293 23.1289 38.1523C23.375 38.0117 23.6699 37.9414 24.0137 37.9414C24.1035 37.9414 24.1992 37.9512 24.3008 37.9707C24.4023 37.9902 24.5195 38.0293 24.6523 38.0879C24.7891 38.1426 24.9199 38.2148 25.0449 38.3047C25.1699 38.3945 25.293 38.5195 25.4141 38.6797C25.5391 38.8398 25.6465 39.0234 25.7363 39.2305C25.8262 39.4336 25.8984 39.6875 25.9531 39.9922C26.0117 40.2969 26.041 40.6328 26.041 41C26.041 41.4414 25.9863 41.8516 25.877 42.2305C25.7676 42.6055 25.6074 42.9395 25.3965 43.2324C25.1855 43.5254 24.9082 43.7559 24.5645 43.9238C24.2207 44.0918 23.8281 44.1758 23.3867 44.1758C23 44.1758 22.6797 44.0762 22.4258 43.877V46.4844L23.0293 46.543V46.7832H20.3867V46.543L20.9902 46.4844V38.5859H20.2695ZM22.4258 43.5664C22.6484 43.7656 22.8887 43.8652 23.1465 43.8652C23.334 43.8652 23.5 43.8281 23.6445 43.7539C23.793 43.6797 23.9141 43.5879 24.0078 43.4785C24.1055 43.3691 24.1895 43.2266 24.2598 43.0508C24.3301 42.8711 24.3828 42.7031 24.418 42.5469C24.4531 42.3867 24.4805 42.1973 24.5 41.9785C24.5195 41.7598 24.5312 41.5781 24.5352 41.4336C24.5391 41.2891 24.541 41.1172 24.541 40.918C24.541 40.2852 24.4961 39.7793 24.4062 39.4004C24.3164 39.0176 24.1992 38.7578 24.0547 38.6211C23.9102 38.4805 23.7285 38.4102 23.5098 38.4102C23.2051 38.4102 22.9473 38.5703 22.7363 38.8906C22.5293 39.2109 22.4258 39.5703 22.4258 39.9688V43.5664ZM26.8789 46.0332C26.8789 45.8027 26.9473 45.6094 27.084 45.4531C27.2246 45.2969 27.4004 45.2188 27.6113 45.2188C27.8379 45.2188 28.0078 45.2891 28.1211 45.4297C28.2383 45.5703 28.2969 45.7441 28.2969 45.9512C28.2969 46.0293 28.2715 46.123 28.2207 46.2324C28.1738 46.3418 28.1113 46.4238 28.0332 46.4785V46.502C28.1699 46.498 28.2988 46.4492 28.4199 46.3555C28.541 46.2656 28.6504 46.1348 28.748 45.9629C28.8457 45.791 28.9199 45.6465 28.9707 45.5293C29.0215 45.4121 29.0801 45.2656 29.1465 45.0898L29.4102 44.1992L26.9199 38.4219L26.3398 38.3574V38.1172H29.1113V38.3574L28.4785 38.4219L30.002 42.2422L31.1504 38.4219L30.5059 38.3574V38.1172H32.0996V38.3574L31.4902 38.4219L29.5449 45.0078C29.4082 45.4062 29.2676 45.7383 29.123 46.0039C28.9785 46.2695 28.832 46.4629 28.6836 46.584C28.5391 46.709 28.4043 46.793 28.2793 46.8359C28.1543 46.8789 28.0156 46.9004 27.8633 46.9004C27.5703 46.9004 27.332 46.8184 27.1484 46.6543C26.9688 46.4902 26.8789 46.2832 26.8789 46.0332ZM32.0996 38.3691V38.1172H33.0957V36.8223L33.5996 36.7695L34.4258 36.5527L34.5371 36.7227V38.1172H35.8203V38.3691L34.5371 38.4219V42.5469C34.5371 42.7852 34.5645 42.9844 34.6191 43.1445C34.6777 43.3008 34.752 43.4082 34.8418 43.4668C34.9355 43.5254 35.0098 43.5625 35.0645 43.5781C35.123 43.5938 35.1836 43.6016 35.2461 43.6016C35.3672 43.6016 35.4824 43.5762 35.5918 43.5254C35.7051 43.4707 35.8066 43.3926 35.8965 43.291C35.9902 43.1895 36.0664 43.0977 36.125 43.0156C36.1836 42.9297 36.25 42.8262 36.3242 42.7051L36.5762 42.8574C36.3691 43.2012 36.1895 43.4512 36.0371 43.6074C35.666 43.9863 35.2383 44.1758 34.7539 44.1758C34.5703 44.1758 34.4062 44.1621 34.2617 44.1348C34.1211 44.1113 33.9746 44.0586 33.8223 43.9766C33.6699 43.8945 33.543 43.7852 33.4414 43.6484C33.3398 43.5078 33.2559 43.3164 33.1895 43.0742C33.127 42.8281 33.0957 42.541 33.0957 42.2129V38.4219L32.0996 38.3691ZM36.7285 36.1016V35.8613L37.9531 35.7324L38.7793 35.5156L38.8613 35.6855V38.9609H38.8848C39.3496 38.2812 39.9512 37.9414 40.6895 37.9414C40.8301 37.9414 40.9648 37.9531 41.0938 37.9766C41.2227 38 41.3652 38.0527 41.5215 38.1348C41.6777 38.2168 41.8125 38.3242 41.9258 38.457C42.0391 38.5898 42.1348 38.7793 42.2129 39.0254C42.291 39.2715 42.3301 39.5586 42.3301 39.8867V43.7012L42.9277 43.7598V44H40.291V43.7598L40.8887 43.7012V39.7168C40.8887 38.8848 40.6211 38.4688 40.0859 38.4688C39.7344 38.4688 39.4453 38.6289 39.2188 38.9492C38.9961 39.2695 38.8848 39.6895 38.8848 40.209V43.7012L39.4883 43.7598V44H36.8457V43.7598L37.4492 43.7012V36.1016H36.7285ZM43.6953 41.0938C43.6953 40.5039 43.8086 39.9688 44.0352 39.4883C44.2656 39.0078 44.5859 38.6309 44.9961 38.3574C45.4102 38.0801 45.877 37.9414 46.3965 37.9414C46.8262 37.9414 47.2129 38.0312 47.5566 38.2109C47.9043 38.3867 48.1816 38.623 48.3887 38.9199C48.5996 39.2168 48.7598 39.5488 48.8691 39.916C48.9824 40.2793 49.0391 40.6602 49.0391 41.0586C49.0391 41.6328 48.9297 42.1562 48.7109 42.6289C48.4922 43.1016 48.1777 43.4785 47.7676 43.7598C47.3613 44.0371 46.9004 44.1758 46.3848 44.1758C45.9277 44.1758 45.5234 44.0957 45.1719 43.9355C44.8242 43.7715 44.543 43.5469 44.3281 43.2617C44.1172 42.9727 43.959 42.6465 43.8535 42.2832C43.748 41.9199 43.6953 41.5234 43.6953 41.0938ZM45.1953 41.0234C45.1953 41.457 45.2168 41.8457 45.2598 42.1895C45.3027 42.5293 45.3691 42.832 45.459 43.0977C45.5488 43.3594 45.6699 43.5605 45.8223 43.7012C45.9746 43.8418 46.1543 43.9121 46.3613 43.9121C47.1465 43.9121 47.5391 42.9727 47.5391 41.0938C47.5391 40.6211 47.5195 40.2148 47.4805 39.875C47.4453 39.5352 47.3828 39.2363 47.293 38.9785C47.207 38.7168 47.0859 38.5234 46.9297 38.3984C46.7734 38.2695 46.584 38.2051 46.3613 38.2051C46.1543 38.2051 45.9746 38.2754 45.8223 38.416C45.6699 38.5566 45.5488 38.7559 45.459 39.0137C45.3691 39.2715 45.3027 39.5664 45.2598 39.8984C45.2168 40.2305 45.1953 40.6055 45.1953 41.0234ZM49.8359 38.3457L51.0605 38.2168L51.8867 38L51.9922 38.1699L51.9688 38.9609H51.9922C52.457 38.2812 53.0586 37.9414 53.7969 37.9414C53.9375 37.9414 54.0723 37.9531 54.2012 37.9766C54.3301 38 54.4727 38.0527 54.6289 38.1348C54.7852 38.2168 54.9199 38.3242 55.0332 38.457C55.1465 38.5898 55.2422 38.7793 55.3203 39.0254C55.3984 39.2715 55.4375 39.5586 55.4375 39.8867V43.7012L56.0352 43.7598V44H53.3984V43.7598L53.9961 43.7012V39.7168C53.9961 38.8848 53.7285 38.4688 53.1934 38.4688C52.8418 38.4688 52.5527 38.6289 52.3262 38.9492C52.1035 39.2695 51.9922 39.6895 51.9922 40.209V43.7012L52.5957 43.7598V44H49.9531V43.7598L50.5566 43.7012V38.5742L49.8477 38.5859L49.8359 38.3457Z" fill="white"/>
</svg>
